<?xml version="1.0" encoding="utf-8"?>
<!-- Generator: Adobe Illustrator 23.0.5, SVG Export Plug-In . SVG Version: 6.00 Build 0)  -->
<svg version="1.1" id="Layer_1" xmlns="http://www.w3.org/2000/svg" xmlns:xlink="http://www.w3.org/1999/xlink" x="0px" y="0px"
	 viewBox="0 0 512 512" style="enable-background:new 0 0 512 512;" xml:space="preserve">
<style type="text/css">
	.st0{fill:#FFA500;stroke:#FFA500;stroke-miterlimit:10;}
</style>
<g>
	<g>
		<g>
			<path class="st0" d="M4.5,425.6c1.3,0.7,2.7,1,4.1,1c3,0,6-1.6,7.5-4.5L127.2,217c0.2-0.5,6-12.2,17.9-12.2c1.7,0,3.6,0.9,5.5,2
				L77.9,337.2c-2.3,4.1-0.8,9.3,3.3,11.6c1.3,0.7,2.7,1.1,4.1,1.1c3,0,5.9-1.6,7.5-4.4l71.6-128.4l26.8,20.1
				c3.4,2.6,8.1,2.2,11.2-0.8l45.2-45.2l28.1,28.1c3.3,3.3,8.7,3.3,12.1,0l25.6-25.6c3.3-3.3,3.3-8.7,0-12.1s-8.7-3.3-12.1,0
				l-19.6,19.6l-28.1-28.1c-3.3-3.3-8.7-3.3-12.1,0l-46,46l-28.1-21l-1-0.8c-4.5-3.6-12-9.6-21.4-9.6c-22.9,0-32.9,21.1-33.1,21.5
				L1,414.1C-1.2,418.2,0.3,423.4,4.5,425.6z"/>
			<path class="st0" d="M110.9,443.7H8.5c-4.7,0-8.5,3.8-8.5,8.5s3.8,8.5,8.5,8.5h102.4c4.7,0,8.5-3.8,8.5-8.5
				S115.6,443.7,110.9,443.7z"/>
			<path class="st0" d="M173.3,182.6c4.1,2.2,9.3,0.7,11.6-3.5l53.3-98.7c0.2-0.5,6-12.2,17.9-12.2c11.9,0,17.6,11.7,18.1,12.6
				l144.3,264.6c1.6,2.8,4.5,4.4,7.5,4.4c1.4,0,2.8-0.3,4.1-1c4.1-2.3,5.7-7.4,3.4-11.6l-39-71.4c2.1-0.9,4.3-1.3,6.6-1.3
				c11.9,0,17.6,11.7,18.1,12.5l76.8,145.1c1.5,2.9,4.5,4.5,7.6,4.5c1.3,0,2.7-0.3,4-1c4.2-2.2,5.8-7.4,3.5-11.5l-76.6-144.6
				c-0.4-0.9-10.4-22-33.3-22c-5.2,0-10.1,1.3-14.8,3.5L289.4,73.2c-0.4-0.9-10.4-22-33.3-22c-22.9,0-32.9,21.1-33.1,21.5L169.8,171
				C167.6,175.2,169.1,180.3,173.3,182.6z"/>
			<path class="st0" d="M452.3,443.7h-93.9v-17.1h17.1h0.2c4.7,0,8.5-3.8,8.5-8.5c0-1.6-0.5-3.2-1.3-4.5l-25-66.8
				c-1.3-3.3-4.4-5.5-8-5.5s-6.7,2.2-8,5.5l-25.6,68.3c-1,2.6-0.6,5.6,1,7.9c1.6,2.3,4.2,3.7,7,3.7h17.1v17.1h-34.1v-25.6
				c0-4.7-3.8-8.5-8.5-8.5h-13.3l13.4-35.8l1.9,4.8c1.7,4.4,6.7,6.6,11,4.9c4.4-1.7,6.6-6.7,4.9-11l-10-25.6c-1.3-3.3-4.4-5.4-8-5.4
				h-0.1c-3.5,0-6.7,2.2-7.9,5.5l-25.6,68.3c-1,2.6-0.6,5.6,1,7.9c1.6,2.3,4.2,3.7,7,3.7h17.1v17.1H153.6v-17.1h17.1h0.2
				c4.7,0,8.5-3.8,8.5-8.5c0-1.6-0.5-3.2-1.3-4.5l-25-66.8c-1.3-3.3-4.4-5.5-8-5.5c-3.6,0-6.7,2.2-8,5.5l-25.6,68.3
				c-1,2.6-0.6,5.6,1,7.9c1.6,2.3,4.2,3.7,7,3.7h17.1v25.6c0,4.7,3.8,8.5,8.5,8.5h307.2c4.7,0,8.5-3.8,8.5-8.5
				S457,443.7,452.3,443.7z M131.8,409.6l13.3-35.4l13.3,35.4H131.8z M336.6,409.6l13.3-35.4l13.3,35.4H336.6z"/>
			<path class="st0" d="M503.5,443.7h-17.1c-4.7,0-8.5,3.8-8.5,8.5s3.8,8.5,8.5,8.5h17.1c4.7,0,8.5-3.8,8.5-8.5
				S508.2,443.7,503.5,443.7z"/>
		</g>
	</g>
</g>
</svg>
