<svg id="Layer_1" data-name="Layer 1" xmlns="http://www.w3.org/2000/svg" viewBox="0 0 512.01 512.01"><defs><style>.cls-1{fill:orange;stroke:orange;stroke-miterlimit:10;}</style></defs><title>mountain-svgrepo-com</title><path class="cls-1" d="M4.47,425.64A8.54,8.54,0,0,0,16,422.2L127.19,217c.24-.49,6-12.16,17.88-12.16a11.3,11.3,0,0,1,5.47,2L77.88,337.18a8.54,8.54,0,0,0,14.92,8.31l71.55-128.4,26.8,20.14a8.52,8.52,0,0,0,11.15-.79l45.17-45.17,28.1,28.1a8.52,8.52,0,0,0,12.07,0l25.6-25.6a8.53,8.53,0,1,0-12.07-12.07L281.6,201.27l-28.1-28.1a8.51,8.51,0,0,0-12.06,0l-46,46-28.06-21-1-.79c-4.49-3.58-12-9.57-21.35-9.57-22.93,0-32.93,21.13-33.1,21.53L1,414.07A8.53,8.53,0,0,0,4.47,425.64Z"/><path class="cls-1" d="M110.94,443.74H8.54a8.53,8.53,0,1,0,0,17.06h102.4a8.53,8.53,0,0,0,0-17.06Z"/><path class="cls-1" d="M173.28,182.58a8.52,8.52,0,0,0,11.56-3.45l53.29-98.7c.24-.5,6-12.16,17.87-12.16s17.64,11.66,18.11,12.62l144.3,264.56a8.54,8.54,0,0,0,15-8.18l-39-71.4a17.21,17.21,0,0,1,6.63-1.33c11.9,0,17.64,11.66,18.06,12.51l76.8,145.08a8.53,8.53,0,1,0,15.08-8L434.42,269.49c-.42-.89-10.42-22-33.35-22a34.16,34.16,0,0,0-14.77,3.47L289.35,73.23c-.42-.9-10.42-22-33.35-22s-32.93,21.13-33.11,21.55L169.83,171A8.53,8.53,0,0,0,173.28,182.58Z"/><path class="cls-1" d="M452.27,443.74H358.4V426.67h17.24a8.53,8.53,0,0,0,7.26-13l-25-66.79a8.55,8.55,0,0,0-16,0l-25.6,68.27a8.54,8.54,0,0,0,8,11.53h17.07v17.07H307.2v-25.6a8.54,8.54,0,0,0-8.53-8.54H285.38l13.43-35.82,1.86,4.78a8.53,8.53,0,0,0,15.91-6.18l-10-25.6a8.53,8.53,0,0,0-7.95-5.44h-.05a8.53,8.53,0,0,0-7.95,5.54l-25.6,68.26a8.54,8.54,0,0,0,8,11.53h17.07v17.07H153.6V426.67h17.24a8.53,8.53,0,0,0,8.53-8.53,8.4,8.4,0,0,0-1.27-4.48l-25-66.78a8.55,8.55,0,0,0-16,0l-25.59,68.26a8.54,8.54,0,0,0,8,11.53h17.07v25.6a8.53,8.53,0,0,0,8.53,8.53h307.2a8.53,8.53,0,1,0,0-17.06ZM131.78,409.6l13.29-35.43,13.29,35.43Zm204.8,0,13.29-35.43,13.29,35.43Z"/><path class="cls-1" d="M503.47,443.74H486.4a8.53,8.53,0,1,0,0,17.06h17.07a8.53,8.53,0,1,0,0-17.06Z"/></svg>